<svg id="Layer_1" data-name="Layer 1" xmlns="http://www.w3.org/2000/svg" viewBox="0 0 379.46 300.28"><defs><style>.cls-1{fill:#333;}.cls-2{fill:none;stroke:#333;stroke-miterlimit:10;}.cls-3{fill:#900;}.cls-4{fill:#396;}</style></defs><title>last logo</title><polygon class="cls-1" points="27.63 245.47 23 245.47 23 223.45 16.04 245.47 13.66 245.47 6.66 223.45 6.66 245.47 2.96 245.47 2.96 220.32 10.05 220.32 15.32 236.51 20.5 220.32 27.63 220.32 27.63 245.47"/><polygon class="cls-2" points="27.63 245.47 23 245.47 23 223.45 16.04 245.47 13.66 245.47 6.66 223.45 6.66 245.47 2.96 245.47 2.96 220.32 10.05 220.32 15.32 236.51 20.5 220.32 27.63 220.32 27.63 245.47"/><path class="cls-1" d="M258.92,413.92a9.17,9.17,0,0,1-7.8-3.76,15.12,15.12,0,0,1-2.8-9.29,14.22,14.22,0,0,1,3-9.19,9.56,9.56,0,0,1,7.83-3.69,9.26,9.26,0,0,1,7.75,3.69,14.71,14.71,0,0,1,2.85,9.24,14.31,14.31,0,0,1-3,9.41A9.66,9.66,0,0,1,258.92,413.92Zm0-3.65a5.21,5.21,0,0,0,4.14-2q1.69-2,1.7-7.35a13.82,13.82,0,0,0-1.4-6.79,4.68,4.68,0,0,0-4.35-2.46q-5.82,0-5.82,9.38,0,4.55,1.48,6.9A4.75,4.75,0,0,0,259,410.27Z" transform="translate(-216.48 -168.06)"/><path class="cls-2" d="M258.92,413.92a9.17,9.17,0,0,1-7.8-3.76,15.12,15.12,0,0,1-2.8-9.29,14.22,14.22,0,0,1,3-9.19,9.56,9.56,0,0,1,7.83-3.69,9.26,9.26,0,0,1,7.75,3.69,14.71,14.71,0,0,1,2.85,9.24,14.31,14.31,0,0,1-3,9.41A9.66,9.66,0,0,1,258.92,413.92Zm0-3.65a5.21,5.21,0,0,0,4.14-2q1.69-2,1.7-7.35a13.82,13.82,0,0,0-1.4-6.79,4.68,4.68,0,0,0-4.35-2.46q-5.82,0-5.82,9.38,0,4.55,1.48,6.9A4.75,4.75,0,0,0,259,410.27Z" transform="translate(-216.48 -168.06)"/><polygon class="cls-1" points="82.14 245.47 77.51 245.47 77.51 223.45 70.55 245.47 68.17 245.47 61.17 223.45 61.17 245.47 57.46 245.47 57.46 220.32 64.56 220.32 69.83 236.51 75 220.32 82.14 220.32 82.14 245.47"/><polygon class="cls-2" points="82.14 245.47 77.51 245.47 77.51 223.45 70.55 245.47 68.17 245.47 61.17 223.45 61.17 245.47 57.46 245.47 57.46 220.32 64.56 220.32 69.83 236.51 75 220.32 82.14 220.32 82.14 245.47"/><path class="cls-1" d="M313.43,413.92a9.18,9.18,0,0,1-7.81-3.76,15.18,15.18,0,0,1-2.79-9.29,14.22,14.22,0,0,1,3-9.19,9.55,9.55,0,0,1,7.83-3.69,9.26,9.26,0,0,1,7.75,3.69,14.76,14.76,0,0,1,2.84,9.24,14.3,14.3,0,0,1-3,9.41A9.68,9.68,0,0,1,313.43,413.92Zm0-3.65a5.22,5.22,0,0,0,4.15-2q1.69-2,1.69-7.35a13.71,13.71,0,0,0-1.4-6.79,4.66,4.66,0,0,0-4.35-2.46q-5.82,0-5.82,9.38,0,4.55,1.49,6.9A4.73,4.73,0,0,0,313.46,410.27Z" transform="translate(-216.48 -168.06)"/><path class="cls-2" d="M313.43,413.92a9.18,9.18,0,0,1-7.81-3.76,15.18,15.18,0,0,1-2.79-9.29,14.22,14.22,0,0,1,3-9.19,9.55,9.55,0,0,1,7.83-3.69,9.26,9.26,0,0,1,7.75,3.69,14.76,14.76,0,0,1,2.84,9.24,14.3,14.3,0,0,1-3,9.41A9.68,9.68,0,0,1,313.43,413.92Zm0-3.65a5.22,5.22,0,0,0,4.15-2q1.69-2,1.69-7.35a13.71,13.71,0,0,0-1.4-6.79,4.66,4.66,0,0,0-4.35-2.46q-5.82,0-5.82,9.38,0,4.55,1.49,6.9A4.73,4.73,0,0,0,313.46,410.27Z" transform="translate(-216.48 -168.06)"/><polygon class="cls-1" points="137.75 245.47 121.4 245.47 121.4 220.32 137.58 220.32 137.58 224.06 125.94 224.06 125.94 230.88 135.3 230.88 135.3 234.52 125.94 234.52 125.94 241.56 137.75 241.56 137.75 245.47"/><polygon class="cls-2" points="137.75 245.47 121.4 245.47 121.4 220.32 137.58 220.32 137.58 224.06 125.94 224.06 125.94 230.88 135.3 230.88 135.3 234.52 125.94 234.52 125.94 241.56 137.75 241.56 137.75 245.47"/><polygon class="cls-1" points="157.13 245.47 141.65 245.47 141.65 220.32 146.43 220.32 146.43 241.36 157.13 241.36 157.13 245.47"/><polygon class="cls-2" points="157.13 245.47 141.65 245.47 141.65 220.32 146.43 220.32 146.43 241.36 157.13 241.36 157.13 245.47"/><path class="cls-1" d="M396.55,413.53h-4.79l-3.91-10.34h-6.37v10.34h-4.54V388.38h10.91q4.56,0,6.69,2.05a7,7,0,0,1,2.14,5.32,6.65,6.65,0,0,1-4.53,6.67Zm-15.07-14h5.63a5.46,5.46,0,0,0,3.65-1,3.56,3.56,0,0,0,1.2-2.84,3.36,3.36,0,0,0-1.18-2.68,4.86,4.86,0,0,0-3.3-1h-6Z" transform="translate(-216.48 -168.06)"/><path class="cls-2" d="M396.55,413.53h-4.79l-3.91-10.34h-6.37v10.34h-4.54V388.38h10.91q4.56,0,6.69,2.05a7,7,0,0,1,2.14,5.32,6.65,6.65,0,0,1-4.53,6.67Zm-15.07-14h5.63a5.46,5.46,0,0,0,3.65-1,3.56,3.56,0,0,0,1.2-2.84,3.36,3.36,0,0,0-1.18-2.68,4.86,4.86,0,0,0-3.3-1h-6Z" transform="translate(-216.48 -168.06)"/><path class="cls-1" d="M420.93,413.53h-4.85l-2-6H404.4l-2,6h-3.87l8.35-25.15h5.58Zm-8.07-9.62-3.67-11.22-3.67,11.22Z" transform="translate(-216.48 -168.06)"/><path class="cls-2" d="M420.93,413.53h-4.85l-2-6H404.4l-2,6h-3.87l8.35-25.15h5.58Zm-8.07-9.62-3.67-11.22-3.67,11.22Z" transform="translate(-216.48 -168.06)"/><polygon class="cls-1" points="215.36 245.47 210.55 245.47 210.55 234.85 201.98 220.32 207.47 220.32 213.44 230.69 219.16 220.32 223.51 220.32 215.36 234.85 215.36 245.47"/><polygon class="cls-2" points="215.36 245.47 210.55 245.47 210.55 234.85 201.98 220.32 207.47 220.32 213.44 230.69 219.16 220.32 223.51 220.32 215.36 234.85 215.36 245.47"/><path class="cls-1" d="M460,413.53h-4.85l-2-6h-9.67l-2,6h-3.87l8.34-25.15h5.59Zm-8.07-9.62-3.67-11.22-3.67,11.22Z" transform="translate(-216.48 -168.06)"/><path class="cls-2" d="M460,413.53h-4.85l-2-6h-9.67l-2,6h-3.87l8.34-25.15h5.59Zm-8.07-9.62-3.67-11.22-3.67,11.22Z" transform="translate(-216.48 -168.06)"/><polygon class="cls-1" points="265.17 245.47 260.64 245.47 260.64 234.54 251.04 234.54 251.04 245.47 246.5 245.47 246.5 220.32 251.04 220.32 251.04 230.65 260.64 230.65 260.64 220.32 265.17 220.32 265.17 245.47"/><polygon class="cls-2" points="265.17 245.47 260.64 245.47 260.64 234.54 251.04 234.54 251.04 245.47 246.5 245.47 246.5 220.32 251.04 220.32 251.04 230.65 260.64 230.65 260.64 220.32 265.17 220.32 265.17 245.47"/><path class="cls-1" d="M510.67,404.79l4.2.46a9.79,9.79,0,0,1-2.92,6.22,9.09,9.09,0,0,1-6.61,2.45,8.59,8.59,0,0,1-5.59-1.74,11.09,11.09,0,0,1-3.31-4.7,17.82,17.82,0,0,1-1.16-6.54,15.07,15.07,0,0,1,2.73-9.35,9.6,9.6,0,0,1,13.73-1.3,10.93,10.93,0,0,1,3.13,6.6l-4.2.44c-.78-3.8-2.48-5.69-5.13-5.69a4.4,4.4,0,0,0-4,2.36,13.6,13.6,0,0,0-1.41,6.87c0,3.05.51,5.34,1.51,6.9a4.59,4.59,0,0,0,4,2.33,4.36,4.36,0,0,0,3.39-1.57A6.25,6.25,0,0,0,510.67,404.79Z" transform="translate(-216.48 -168.06)"/><path class="cls-2" d="M510.67,404.79l4.2.46a9.79,9.79,0,0,1-2.92,6.22,9.09,9.09,0,0,1-6.61,2.45,8.59,8.59,0,0,1-5.59-1.74,11.09,11.09,0,0,1-3.31-4.7,17.82,17.82,0,0,1-1.16-6.54,15.07,15.07,0,0,1,2.73-9.35,9.6,9.6,0,0,1,13.73-1.3,10.93,10.93,0,0,1,3.13,6.6l-4.2.44c-.78-3.8-2.48-5.69-5.13-5.69a4.4,4.4,0,0,0-4,2.36,13.6,13.6,0,0,0-1.41,6.87c0,3.05.51,5.34,1.51,6.9a4.59,4.59,0,0,0,4,2.33,4.36,4.36,0,0,0,3.39-1.57A6.25,6.25,0,0,0,510.67,404.79Z" transform="translate(-216.48 -168.06)"/><path class="cls-1" d="M525.5,413.92a7.33,7.33,0,0,1-6.3-3,11.22,11.22,0,0,1-2.18-6.8,10.07,10.07,0,0,1,2.41-6.87,8,8,0,0,1,6.35-2.75,7.89,7.89,0,0,1,6.14,2.67,11.25,11.25,0,0,1-.09,14A8.26,8.26,0,0,1,525.5,413.92Zm.15-3.47c2.82,0,4.24-2.11,4.24-6.32a8.5,8.5,0,0,0-1-4.5,3.39,3.39,0,0,0-3.11-1.65,3.52,3.52,0,0,0-3.23,1.7,8.54,8.54,0,0,0-1,4.52,8.14,8.14,0,0,0,1.12,4.65A3.51,3.51,0,0,0,525.65,410.45Z" transform="translate(-216.48 -168.06)"/><path class="cls-2" d="M525.5,413.92a7.33,7.33,0,0,1-6.3-3,11.22,11.22,0,0,1-2.18-6.8,10.07,10.07,0,0,1,2.41-6.87,8,8,0,0,1,6.35-2.75,7.89,7.89,0,0,1,6.14,2.67,11.25,11.25,0,0,1-.09,14A8.26,8.26,0,0,1,525.5,413.92Zm.15-3.47c2.82,0,4.24-2.11,4.24-6.32a8.5,8.5,0,0,0-1-4.5,3.39,3.39,0,0,0-3.11-1.65,3.52,3.52,0,0,0-3.23,1.7,8.54,8.54,0,0,0-1,4.52,8.14,8.14,0,0,0,1.12,4.65A3.51,3.51,0,0,0,525.65,410.45Z" transform="translate(-216.48 -168.06)"/><rect class="cls-1" x="321.45" y="240.64" width="4.55" height="4.83"/><rect class="cls-2" x="321.45" y="240.64" width="4.55" height="4.83"/><polygon class="cls-1" points="346.51 245.47 331.03 245.47 331.03 220.32 335.8 220.32 335.8 241.36 346.51 241.36 346.51 245.47"/><polygon class="cls-2" points="346.51 245.47 331.03 245.47 331.03 220.32 335.8 220.32 335.8 241.36 346.51 241.36 346.51 245.47"/><path class="cls-1" d="M574.7,410.25v3.28a14.73,14.73,0,0,1-2.91.4,5.9,5.9,0,0,1-2.91-.67,4.1,4.1,0,0,1-1.78-1.84,8.65,8.65,0,0,1-.56-3.6v-9.64h-2.32v-3.26h2.56l.38-4.85,3.45-.31v5.16h3.74v3.26h-3.74v9.08a3.37,3.37,0,0,0,.64,2.39,3.42,3.42,0,0,0,2.4.63Z" transform="translate(-216.48 -168.06)"/><path class="cls-2" d="M574.7,410.25v3.28a14.73,14.73,0,0,1-2.91.4,5.9,5.9,0,0,1-2.91-.67,4.1,4.1,0,0,1-1.78-1.84,8.65,8.65,0,0,1-.56-3.6v-9.64h-2.32v-3.26h2.56l.38-4.85,3.45-.31v5.16h3.74v3.26h-3.74v9.08a3.37,3.37,0,0,0,.64,2.39,3.42,3.42,0,0,0,2.4.63Z" transform="translate(-216.48 -168.06)"/><path class="cls-1" d="M593.53,413.53h-3.92v-3.76c-1.08,2.76-2.91,4.15-5.49,4.15a5.86,5.86,0,0,1-5.25-2.86A12.92,12.92,0,0,1,577,404a12.3,12.3,0,0,1,1.9-6.87,6.07,6.07,0,0,1,5.4-2.93,5,5,0,0,1,5,3.28v-9.06h4.2Zm-4.2-11a5.24,5.24,0,0,0-1.08-3.52,3.46,3.46,0,0,0-2.79-1.27,3.28,3.28,0,0,0-2.91,1.63,9,9,0,0,0-1,4.84q0,6.22,3.91,6.23a3.57,3.57,0,0,0,2.73-1.34,4.91,4.91,0,0,0,1.19-3.41Z" transform="translate(-216.48 -168.06)"/><path class="cls-2" d="M593.53,413.53h-3.92v-3.76c-1.08,2.76-2.91,4.15-5.49,4.15a5.86,5.86,0,0,1-5.25-2.86A12.92,12.92,0,0,1,577,404a12.3,12.3,0,0,1,1.9-6.87,6.07,6.07,0,0,1,5.4-2.93,5,5,0,0,1,5,3.28v-9.06h4.2Zm-4.2-11a5.24,5.24,0,0,0-1.08-3.52,3.46,3.46,0,0,0-2.79-1.27,3.28,3.28,0,0,0-2.91,1.63,9,9,0,0,0-1,4.84q0,6.22,3.91,6.23a3.57,3.57,0,0,0,2.73-1.34,4.91,4.91,0,0,0,1.19-3.41Z" transform="translate(-216.48 -168.06)"/><path class="cls-3" d="M230.7,441.51V454.8a5.28,5.28,0,0,1-1.62,3.9,5.12,5.12,0,0,1-3.86,1.66H222a5.29,5.29,0,0,1-3.91-1.63,5.39,5.39,0,0,1-1.56-3.93v-7.72a5.33,5.33,0,0,1,1.63-3.89,5.08,5.08,0,0,1,3.86-1.68Zm-9.92-3a2,2,0,0,1-.88-.19,2.28,2.28,0,0,1-.72-.52,2.45,2.45,0,0,1-.49-.78,2.56,2.56,0,0,1-.18-1,2.5,2.5,0,0,1,.18-.94,2.2,2.2,0,0,1,.49-.77,2.45,2.45,0,0,1,.72-.52,2.16,2.16,0,0,1,.88-.18,2.2,2.2,0,0,1,.88.18,2.45,2.45,0,0,1,.72.52,2.2,2.2,0,0,1,.49.77,2.5,2.5,0,0,1,.18.94,2.56,2.56,0,0,1-.18,1,2.45,2.45,0,0,1-.49.78,2.28,2.28,0,0,1-.72.52A2.05,2.05,0,0,1,220.78,438.49Zm4.68,6.65h-1.9c-1.23,0-1.84.76-1.84,2.29v7c0,1.52.63,2.29,1.89,2.29s1.85-.77,1.85-2.29Zm.63-6.65a2,2,0,0,1-.88-.19,2.28,2.28,0,0,1-.72-.52A2.45,2.45,0,0,1,224,437a2.56,2.56,0,0,1-.18-1,2.5,2.5,0,0,1,.18-.94,2.2,2.2,0,0,1,.49-.77,2.45,2.45,0,0,1,.72-.52,2.16,2.16,0,0,1,.88-.18,2.2,2.2,0,0,1,.88.18,2.29,2.29,0,0,1,.71.52,2.55,2.55,0,0,1,.66,1.71,2.56,2.56,0,0,1-.18,1,2.83,2.83,0,0,1-.48.78,2.14,2.14,0,0,1-.71.52A2.05,2.05,0,0,1,226.09,438.49Z" transform="translate(-216.48 -168.06)"/><path class="cls-3" d="M249.11,460.36H235.38v-3.62h8.49V447.5c0-1.58-.58-2.36-1.73-2.36h-6.76v-3.63h8.28a5.19,5.19,0,0,1,3.86,1.64,5.35,5.35,0,0,1,1.59,3.9Z" transform="translate(-216.48 -168.06)"/><path class="cls-3" d="M268,462.75a5.32,5.32,0,0,1-1.62,3.91,5.26,5.26,0,0,1-3.86,1.63H259v-3.62h2a1.53,1.53,0,0,0,1.34-.77,2.09,2.09,0,0,0,.32-.73,3.35,3.35,0,0,0,.1-.87v-1.94h-3.56a5.06,5.06,0,0,1-3.81-1.63,5.31,5.31,0,0,1-1.61-3.91v-7.77a5.24,5.24,0,0,1,1.61-3.9,5.13,5.13,0,0,1,3.86-1.64H268Zm-5.24-17.61h-1c-1.82,0-2.74.78-2.74,2.36v6.92c0,1.55.84,2.32,2.51,2.32h1.24Z" transform="translate(-216.48 -168.06)"/><path class="cls-3" d="M289.2,460.36H272.69v-3.62h8.49V447.5c0-1.58-.58-2.36-1.73-2.36h-6.76v-3.63H281a5.19,5.19,0,0,1,3.86,1.64,5.35,5.35,0,0,1,1.59,3.9v9.69h2.78Z" transform="translate(-216.48 -168.06)"/><path class="cls-3" d="M288.57,456.74h13.31v-9.8c0-1.2-.77-1.8-2.32-1.8h-8.23v-3.63H301.6a5.27,5.27,0,0,1,3.88,1.59,5.12,5.12,0,0,1,1.64,3.84v9.8h1.73v3.62H288.57Z" transform="translate(-216.48 -168.06)"/><path class="cls-3" d="M325.74,456.25a3.06,3.06,0,0,0,1.94.49h.37v3.62H327a5.41,5.41,0,0,1-2.2-.44,6,6,0,0,1-1.24,1.92,5.28,5.28,0,0,1-3.86,1.63h-3.25a5.52,5.52,0,0,1-5.08-3.55,6.53,6.53,0,0,1-2.2.44h-.89v-3.62h.33a2.79,2.79,0,0,0,1.76-.49,2.27,2.27,0,0,0,.58-1.8V447a5.27,5.27,0,0,1,1.59-3.88,5.17,5.17,0,0,1,3.84-1.64h3.32a5.29,5.29,0,0,1,3.86,1.64,5.36,5.36,0,0,1,1.61,3.88v7.42A2.27,2.27,0,0,0,325.74,456.25Zm-5.83-8.75c0-1.58-.62-2.36-1.87-2.36s-1.87.78-1.87,2.36v10c0,1.59.62,2.38,1.87,2.38s1.87-.79,1.87-2.38Z" transform="translate(-216.48 -168.06)"/><path class="cls-3" d="M335.38,428.83v26a5.57,5.57,0,0,1-5.43,5.52h-2.62v-3.62h.47a2.76,2.76,0,0,0,1.75-.49,2.36,2.36,0,0,0,.59-1.83V428.83Z" transform="translate(-216.48 -168.06)"/><rect class="cls-3" x="123.58" y="260.77" width="5.24" height="31.53"/><path class="cls-3" d="M361.17,467.88a5.68,5.68,0,0,1-1.77-1.22,5.33,5.33,0,0,1-1.59-3.91v-6H370.7v-9.8c0-1.2-.78-1.8-2.32-1.8h-8.23v-3.63h10.27a5.29,5.29,0,0,1,3.88,1.59,5.12,5.12,0,0,1,1.64,3.84v9.8h1.94v3.62H363.05v2q0,2.34,1.8,2.34h3.76v3.62h-5.33A5.23,5.23,0,0,1,361.17,467.88Z" transform="translate(-216.48 -168.06)"/><path class="cls-3" d="M388.21,429.16c-.35,1.34-1,2-1.94,2a1.63,1.63,0,0,1-1.18-.34c-.22-.22-.43-.44-.62-.66-.29.54-.6,1.09-.91,1.63a2.66,2.66,0,0,1-2.22,1.17q-.75,0-1.2-1.05a4.2,4.2,0,0,1-.32-1.61c0-1.81.48-2.79,1.45-2.95a9.19,9.19,0,0,0-.14,1.52c0,.94.22,1.4.68,1.4.81,0,1.32-.55,1.54-1.66.06-.31.15-1,.28-2a7.41,7.41,0,0,1,1.15-.47c.12,1.65.5,2.48,1.12,2.48.84,0,1.29-1.18,1.33-3.53l.82-.38A8.29,8.29,0,0,1,388.21,429.16Z" transform="translate(-216.48 -168.06)"/><path class="cls-3" d="M388.33,441.51v13.33a5.55,5.55,0,0,1-5.42,5.52h-5.59v-3.62h3.27a3.22,3.22,0,0,0,2-.49,2.4,2.4,0,0,0,.58-1.83V441.51Zm-8,22a2.21,2.21,0,0,1,.88.19,2.17,2.17,0,0,1,.71.53,2.69,2.69,0,0,1,.48.78,2.56,2.56,0,0,1,.18,1,2.5,2.5,0,0,1-.18.94,2.63,2.63,0,0,1-.48.77,2.11,2.11,0,0,1-.71.51,2.18,2.18,0,0,1-1.78,0,2.29,2.29,0,0,1-.73-.51,2.47,2.47,0,0,1-.49-.77,2.7,2.7,0,0,1-.17-.94,2.48,2.48,0,0,1,.65-1.75A2.15,2.15,0,0,1,380.31,463.47Zm3,2.46a2.45,2.45,0,0,1,.67-1.75,2.17,2.17,0,0,1,1.63-.71,2.12,2.12,0,0,1,1.61.71,2.44,2.44,0,0,1,.66,1.75,2.5,2.5,0,0,1-.18.94,2.63,2.63,0,0,1-.48.77,2.05,2.05,0,0,1-.72.51,2.13,2.13,0,0,1-.89.19,2.06,2.06,0,0,1-.89-.19,2.23,2.23,0,0,1-.74-.51,2.47,2.47,0,0,1-.49-.77A2.5,2.5,0,0,1,383.3,465.93Z" transform="translate(-216.48 -168.06)"/><path class="cls-3" d="M401.74,460.36v2.41a5.29,5.29,0,0,1-1.62,3.89,5.22,5.22,0,0,1-3.86,1.63H393v-3.62h1.73c1.17,0,1.76-.79,1.76-2.37V441.51h5.24v15.23h1.94v3.62Z" transform="translate(-216.48 -168.06)"/><path class="cls-3" d="M411.07,428.83v26a5.55,5.55,0,0,1-5.43,5.52H403v-3.62h.47a2.81,2.81,0,0,0,1.76-.49,2.36,2.36,0,0,0,.58-1.83V428.83Z" transform="translate(-216.48 -168.06)"/><rect class="cls-3" x="199.27" y="260.77" width="5.24" height="31.53"/><path class="cls-3" d="M447.72,456.74h2.2v3.62h-2.2v2.39a5.53,5.53,0,0,1-5.47,5.54h-3.53v-3.62h2a1.51,1.51,0,0,0,1.33-.77,1.94,1.94,0,0,0,.33-.73,3.88,3.88,0,0,0,.09-.87v-1.94h-3.55a5.06,5.06,0,0,1-3.81-1.63,5.32,5.32,0,0,1-1.62-3.91v-7.77a5.25,5.25,0,0,1,1.62-3.9,5.13,5.13,0,0,1,3.86-1.64h8.74Zm-5.24-11.6h-1c-1.83,0-2.74.78-2.74,2.36v6.92c0,1.55.84,2.32,2.5,2.32h1.24Z" transform="translate(-216.48 -168.06)"/><path class="cls-3" d="M453.57,461.84a6.37,6.37,0,0,1-.75-.93,5.69,5.69,0,0,1-.49-1,5.41,5.41,0,0,1-2.2.44h-.89v-3.62h.36a2.78,2.78,0,0,0,1.75-.49,2.33,2.33,0,0,0,.58-1.8V447a5.27,5.27,0,0,1,1.62-3.88,5.16,5.16,0,0,1,3.83-1.64h3.26a5.55,5.55,0,0,1,5.47,5.52v10.88a5.53,5.53,0,0,1-5.47,5.56h-3.23A5.16,5.16,0,0,1,453.57,461.84Zm3.6-4.35c0,1.59.61,2.38,1.83,2.38s1.87-.79,1.87-2.38v-10c0-1.58-.62-2.36-1.87-2.36s-1.83.78-1.83,2.36Z" transform="translate(-216.48 -168.06)"/><path class="cls-3" d="M485,456.74h2.2v3.62H485v2.39a5.35,5.35,0,0,1-1.61,3.91,5.28,5.28,0,0,1-3.86,1.63H476v-3.62h2a1.52,1.52,0,0,0,1.33-.77,1.94,1.94,0,0,0,.33-.73,3.88,3.88,0,0,0,.09-.87v-1.94h-3.55a5.1,5.1,0,0,1-3.82-1.63,5.35,5.35,0,0,1-1.61-3.91v-7.77a5.28,5.28,0,0,1,1.61-3.9,5.15,5.15,0,0,1,3.86-1.64H485Zm-5.24-11.6h-1c-1.83,0-2.74.78-2.74,2.36v6.92c0,1.55.83,2.32,2.5,2.32h1.24Z" transform="translate(-216.48 -168.06)"/><path class="cls-3" d="M490.86,461.84a5.28,5.28,0,0,1-.75-.93,5.06,5.06,0,0,1-.49-1,5.44,5.44,0,0,1-2.2.44h-.89v-3.62h.35a2.79,2.79,0,0,0,1.76-.49,2.33,2.33,0,0,0,.58-1.8V447a5.3,5.3,0,0,1,1.61-3.88,5.18,5.18,0,0,1,3.84-1.64h3.25a5.29,5.29,0,0,1,3.86,1.64A5.22,5.22,0,0,1,503.4,447v10.88a5.55,5.55,0,0,1-5.48,5.56H494.7A5.16,5.16,0,0,1,490.86,461.84Zm3.6-4.35c0,1.59.61,2.38,1.83,2.38s1.87-.79,1.87-2.38v-10c0-1.58-.63-2.36-1.87-2.36s-1.83.78-1.83,2.36Z" transform="translate(-216.48 -168.06)"/><path class="cls-3" d="M532.68,456.74h.52v3.62h-1.34a5.38,5.38,0,0,1-3.6-1.4,5.32,5.32,0,0,1-3.65,1.4h-3.23a5.3,5.3,0,0,1-3.9-1.59,5.49,5.49,0,0,1-1.57-3.93V447a5.4,5.4,0,0,1,1.64-3.88,5.3,5.3,0,0,1,3.88-1.64h8.73v13.38C530.16,456.12,531,456.74,532.68,456.74ZM518,436.08a2.55,2.55,0,0,1,.17-1,2.63,2.63,0,0,1,.48-.77,2.11,2.11,0,0,1,.71-.51,2.05,2.05,0,0,1,.88-.19,2.14,2.14,0,0,1,1.64.7,2.43,2.43,0,0,1,.65,1.73,2.42,2.42,0,0,1-.66,1.71,2.19,2.19,0,0,1-.73.51,2.18,2.18,0,0,1-1.78,0,2.11,2.11,0,0,1-.71-.51,2.63,2.63,0,0,1-.48-.77A2.49,2.49,0,0,1,518,436.08Zm7,9.06H523c-1.23,0-1.85.76-1.85,2.29v7.06c0,1.5.63,2.25,1.9,2.25s1.87-.77,1.87-2.29Zm.58-6.65a2,2,0,0,1-.87-.19,2.19,2.19,0,0,1-.73-.51,2.47,2.47,0,0,1-.49-.77,2.5,2.5,0,0,1-.18-.94,2.56,2.56,0,0,1,.18-1,2.47,2.47,0,0,1,.49-.77,2.19,2.19,0,0,1,.73-.51,2,2,0,0,1,.87-.19,2,2,0,0,1,.88.19,2.25,2.25,0,0,1,.72.51,2.72,2.72,0,0,1,.51.77,2.56,2.56,0,0,1,.18,1,2.5,2.5,0,0,1-.18.94,2.72,2.72,0,0,1-.51.77,2.25,2.25,0,0,1-.72.51A2,2,0,0,1,525.5,438.49Z" transform="translate(-216.48 -168.06)"/><path class="cls-3" d="M554.34,428.83l-12.67,12.68h7.08a5.22,5.22,0,0,1,3.86,1.61,5.35,5.35,0,0,1,1.62,3.93v7.75a5.4,5.4,0,0,1-1.62,3.93,5.17,5.17,0,0,1-3.86,1.63H532.47v-3.62h14.65c1.24,0,1.87-.81,1.87-2.41v-6.86c0-1.55-.63-2.33-1.87-2.33H535.28v-3.7l12.61-12.61Z" transform="translate(-216.48 -168.06)"/><path class="cls-3" d="M567.75,460.36v2.41a5.29,5.29,0,0,1-1.62,3.89,5.22,5.22,0,0,1-3.86,1.63H559v-3.62h1.73c1.17,0,1.76-.79,1.76-2.37V441.51h5.24v15.23h1.94v3.62Z" transform="translate(-216.48 -168.06)"/><path class="cls-3" d="M590.7,441.51h5.23V454.8a5.53,5.53,0,0,1-5.47,5.56h-1.57a5.33,5.33,0,0,1-3.83-1.66,2.75,2.75,0,0,1-.33-.37c-.09-.13-.19-.26-.28-.4l-.3.4c-.1.12-.21.25-.33.37a5.22,5.22,0,0,1-3.84,1.66h-1.57a5,5,0,0,1-3.62-1.47,5.35,5.35,0,0,1-3.67,1.47h-2v-3.62h1.59a2.82,2.82,0,0,0,1.78-.49,2.36,2.36,0,0,0,.59-1.83V441.51h5.24v12.87c0,1.57.6,2.36,1.8,2.36s1.78-.77,1.78-2.29V441.51h5.24v12.87c0,1.57.6,2.36,1.8,2.36s1.78-.79,1.78-2.36Zm-11.09-5.45a2.7,2.7,0,0,1,.17-.94,2.63,2.63,0,0,1,.48-.77,2.05,2.05,0,0,1,.72-.51,2.11,2.11,0,0,1,1.75,0,2.41,2.41,0,0,1,.73.51,2.47,2.47,0,0,1,.49.77,2.7,2.7,0,0,1,.17.94,2.77,2.77,0,0,1-.17,1,2.47,2.47,0,0,1-.49.77,2.41,2.41,0,0,1-.73.51,2.11,2.11,0,0,1-1.75,0,2.05,2.05,0,0,1-.72-.51,2.63,2.63,0,0,1-.48-.77A2.77,2.77,0,0,1,579.61,436.06Zm7.2-4.84a2.44,2.44,0,0,1-.66,1.73,2.16,2.16,0,0,1-1.63.7,2.09,2.09,0,0,1-1.61-.7,2.44,2.44,0,0,1-.66-1.73,2.5,2.5,0,0,1,.18-.94,2.27,2.27,0,0,1,.48-.77,2.05,2.05,0,0,1,.72-.51,2.18,2.18,0,0,1,1.78,0,2.33,2.33,0,0,1,.74.51,2.47,2.47,0,0,1,.49.77A2.7,2.7,0,0,1,586.81,431.22Zm.35,7.27a2,2,0,0,1-.87-.19,2.19,2.19,0,0,1-.73-.51,2.47,2.47,0,0,1-.49-.77,2.56,2.56,0,0,1-.18-1,2.5,2.5,0,0,1,.18-.94,2.47,2.47,0,0,1,.49-.77,2.19,2.19,0,0,1,.73-.51,2,2,0,0,1,.87-.19,2,2,0,0,1,.9.19,2.19,2.19,0,0,1,.73.51,2.47,2.47,0,0,1,.49.77,2.5,2.5,0,0,1,.18.94,2.43,2.43,0,0,1-.66,1.73A2.14,2.14,0,0,1,587.16,438.49Z" transform="translate(-216.48 -168.06)"/><path class="cls-1" d="M403.85,357.54a94.74,94.74,0,1,1,94.74-94.74A94.85,94.85,0,0,1,403.85,357.54Zm0-182.55a87.82,87.82,0,1,0,87.82,87.81A87.91,87.91,0,0,0,403.85,175Z" transform="translate(-216.48 -168.06)"/><path class="cls-3" d="M401.86,184.65q-1.44,78.63,0,157.3a66.15,66.15,0,0,1-9.61-.82c-4.61-41.09-5.12-82.56-2.85-123.82-8,17-15.88,34-22.83,51.51.73,23.23,3.6,46,10.07,68.36a64.82,64.82,0,0,1-8.82-3.85c-8.73-21-12.69-42.6-13.69-65.23-5.59-13.34-11.59-27.35-13-41.91-10.91,33.81-6.94,69.28,13.49,98.63a66.75,66.75,0,0,1-6.76-6c-29.88-32.37-30.14-78.63-.65-111.32a68,68,0,0,1,6.47-5.64c-6.4,14.29,2.31,33.78,7.08,47.21,10.14-21.5,21.5-42.39,32.05-63.68A70.81,70.81,0,0,1,401.86,184.65Z" transform="translate(-216.48 -168.06)"/><path class="cls-4" d="M403.55,184.69c22.67-.27,42,6.49,58.84,21.79a81.34,81.34,0,0,1,11.5,14.75c-16.84-8.4-34.44-12.68-53.15-14.41,9.59,14.31,19.34,28.51,28.79,42.92,11.81.47,23.58,1.16,35.35,2.22a106.64,106.64,0,0,1,.21,20.68c-11.87,1.29-23.76,2.29-35.68,3.1-9.27,14.67-18.88,29.12-28.32,43.68,18.88-2.37,36.58-7.31,53.55-16a78,78,0,0,1-11.24,14.65c-17,15.34-36.36,23.23-59.31,23.77q-.31-10.19-.53-20.37c11.89-19.74,24.44-39.06,36.07-59-11.8-19.45-24.47-38.35-36.51-57.65Q403.29,194.79,403.55,184.69Z" transform="translate(-216.48 -168.06)"/></svg>